# xmcd
#
# Track frame offsets: 
#        150
#        12572
#        24734
#        36415
#        48603
#        60414
#        72069
#        84852
#        95290
#        106830
#        128161
#        139167
#        150244
#        163787
#        174675
#        186804
#        197667
#        209962
#        220910
#        232652
#        245772
#        258743
#        270483
#        281070
#        294613
#        304878
#        322273
#        334210
#
# Disc length: 4659 seconds
#
# Revision: 1
# Processed by: cddbd v1.5.2PL0 Copyright (c) Steve Scherf et al.
# Submitted via: ExactAudioCopy v0.95b2
#
DISCID=aa12311c
DTITLE=Arthur Alexander - The Monument Years
DYEAR=2001
DGENRE=R&B
TTITLE0=(Baby) For You
TTITLE1=The Other Woman (In My LIfe)
TTITLE2=Stay By Me
TTITLE3=Me And Mine
TTITLE4=Show Me The Road
TTITLE5=Turn Around (And Try Me)
TTITLE6=Baby This, Baby That
TTITLE7=Baby I Love You
TTITLE8=In My Sorrow
TTITLE9=I Want To Marry You
TTITLE10=In My Baby's Eyes
TTITLE11=Love's Where Life Begins
TTITLE12=Miles and Miles From Nowhere
TTITLE13=You Don't Love Me (You Don't Care)
TTITLE14=I Need You Baby
TTITLE15=We're Gonna Hate Ourselves (In The Morning)
TTITLE16=Spanish Harlem
TTITLE17=Concrete Jungle
TTITLE18=Taking Care Of A Woman
TTITLE19=Set Me Free
TTITLE20=Bye Bye Love
TTITLE21=Another Place, Another Time
TTITLE22=Cry Like A Baby
TTITLE23=Glory Road
TTITLE24=Call Me Honey
TTITLE25=The Migrant
TTITLE26=Lover Please
TTITLE27=In The Middle Of It All
EXTD=
EXTT0=
EXTT1=
EXTT2=
EXTT3=
EXTT4=
EXTT5=
EXTT6=
EXTT7=
EXTT8=
EXTT9=
EXTT10=
EXTT11=
EXTT12=
EXTT13=
EXTT14=
EXTT15=
EXTT16=
EXTT17=
EXTT18=
EXTT19=
EXTT20=
EXTT21=
EXTT22=
EXTT23=
EXTT24=
EXTT25=
EXTT26=
EXTT27=
PLAYORDER=
